<svg width="18" height="17" viewBox="0 0 18 17" fill="none" xmlns="http://www.w3.org/2000/svg">
<g id="Group 48095458">
<circle id="Ellipse 245" cx="9" cy="8" r="5" fill="white"/>
<path id="Vector" d="M18 8.5L16.0036 6.24143L16.2818 3.25429L13.3282 2.59048L11.7818 0L9 1.1819L6.21818 0L4.67182 2.58238L1.71818 3.2381L1.99636 6.23333L0 8.5L1.99636 10.7586L1.71818 13.7538L4.67182 14.4176L6.21818 17L9 15.81L11.7818 16.9919L13.3282 14.4095L16.2818 13.7457L16.0036 10.7586L18 8.5ZM6.85636 11.7462L4.90909 9.80333C4.83324 9.72844 4.77307 9.63948 4.73201 9.54155C4.69095 9.44362 4.66982 9.33864 4.66982 9.23262C4.66982 9.1266 4.69095 9.02162 4.73201 8.92369C4.77307 8.82575 4.83324 8.7368 4.90909 8.6619L4.96636 8.60524C5.28545 8.28952 5.80909 8.28952 6.12818 8.60524L7.44545 9.91667L11.6591 5.73952C11.9782 5.42381 12.5018 5.42381 12.8209 5.73952L12.8782 5.79619C13.1973 6.1119 13.1973 6.6219 12.8782 6.93762L8.03454 11.7462C7.69909 12.0619 7.18364 12.0619 6.85636 11.7462Z" fill="#0047FF"/>
</g>
</svg>
